<svg width="121" height="120" viewBox="0 0 121 120" fill="none" xmlns="http://www.w3.org/2000/svg">
<g clip-path="url(#clip0_532_818)">
<path d="M26.7502 67.9999H10.7504C9.6463 67.9999 8.75 67.1036 8.75 66.0004C8.75 64.8963 9.6463 64 10.7504 64H26.7502C27.8543 64 28.7497 64.8963 28.7497 66.0004C28.7497 67.1036 27.8543 67.9999 26.7502 67.9999Z" fill="#141414"/>
<path d="M26.7502 75.9999H10.7504C9.6463 75.9999 8.75 75.1046 8.75 74.0004C8.75 72.8963 9.6463 72 10.7504 72H26.7502C27.8543 72 28.7497 72.8963 28.7497 74.0004C28.7497 75.1046 27.8543 75.9999 26.7502 75.9999Z" fill="#141414"/>
<path d="M26.7502 83.9995H10.7504C9.6463 83.9995 8.75 83.1041 8.75 81.9999C8.75 80.8958 9.6463 79.9995 10.7504 79.9995H26.7502C27.8543 79.9995 28.7497 80.8958 28.7497 81.9999C28.7497 83.1041 27.8543 83.9995 26.7502 83.9995Z" fill="#141414"/>
<path d="M18.7183 57.9994C15.448 57.9994 12.3004 57.0134 9.60971 55.1475C9.03384 54.7474 8.70975 54.0782 8.75461 53.3778C8.92032 50.742 10.1581 48.2655 12.132 46.526C11.2119 45.2022 10.7184 43.6357 10.7184 41.9996C10.7184 39.6202 11.7685 37.3781 13.5959 35.8537C15.4261 34.3303 17.8321 33.704 20.2079 34.1362C23.3325 34.7075 25.8741 37.1757 26.5341 40.2775C27.002 42.4775 26.5424 44.7279 25.3018 46.526C27.2785 48.2701 28.5163 50.7438 28.682 53.3796C28.7259 54.08 28.4018 54.7502 27.826 55.1503C25.1361 57.0134 21.9886 57.9994 18.7183 57.9994ZM12.9239 52.5035C16.4661 54.4655 20.9677 54.4655 24.5099 52.5035C24.1419 51.0863 23.2602 49.8475 21.9886 49.0135C21.3083 48.5676 20.8643 47.8435 20.7782 47.0241C20.6903 46.1955 20.976 45.3816 21.5601 44.792C22.5241 43.8179 22.9123 42.4757 22.6221 41.1079C22.2998 39.5982 21.0126 38.3494 19.4901 38.0702C18.2743 37.8441 17.0859 38.1498 16.1603 38.9235C15.2439 39.6898 14.7184 40.8095 14.7184 41.9996C14.7184 43.0479 15.1303 44.0394 15.8765 44.792C16.4606 45.3816 16.7462 46.1937 16.6584 47.0222C16.5723 47.8398 16.1301 48.5658 15.4462 49.0162C14.1745 49.8494 13.292 51.0863 12.9239 52.5035Z" fill="#141414"/>
<path d="M58.7498 104H48.7504C47.6463 104 46.75 103.104 46.75 102C46.75 100.896 47.6463 100 48.7504 100H58.7498C59.8539 100 60.7502 100.896 60.7502 102C60.7502 103.104 59.8539 104 58.7498 104Z" fill="#141414"/>
<path d="M104.75 104H70.7504C69.6463 104 68.75 103.104 68.75 102C68.75 100.896 69.6463 100 70.7504 100H104.75C105.854 100 106.75 100.896 106.75 102C106.75 103.104 105.854 104 104.75 104Z" fill="#141414"/>
<path d="M64.7499 110C60.338 110 56.75 106.412 56.75 102C56.75 97.588 60.338 94 64.7499 94C69.1618 94 72.7498 97.588 72.7498 102C72.7498 106.412 69.1618 110 64.7499 110ZM64.7499 97.9999C62.5444 97.9999 60.7499 99.7944 60.7499 102C60.7499 104.206 62.5444 106 64.7499 106C66.9563 106 68.7498 104.206 68.7498 102C68.7498 99.7944 66.9563 97.9999 64.7499 97.9999Z" fill="#141414"/>
<path d="M70.7506 87.9995H48.7504C47.6463 87.9995 46.75 87.1041 46.75 85.9999C46.75 84.8958 47.6463 83.9995 48.7504 83.9995H70.7506C71.8547 83.9995 72.7501 84.8958 72.7501 85.9999C72.7501 87.1041 71.8547 87.9995 70.7506 87.9995Z" fill="#141414"/>
<path d="M104.75 87.9995H82.7499C81.6458 87.9995 80.7495 87.1041 80.7495 85.9999C80.7495 84.8958 81.6458 83.9995 82.7499 83.9995H104.75C105.854 83.9995 106.75 84.8958 106.75 85.9999C106.75 87.1041 105.854 87.9995 104.75 87.9995Z" fill="#141414"/>
<path d="M76.7499 93.9998C72.338 93.9998 68.75 90.4118 68.75 85.9999C68.75 81.588 72.338 78 76.7499 78C81.1618 78 84.7498 81.588 84.7498 85.9999C84.7498 90.4118 81.1618 93.9998 76.7499 93.9998ZM76.7499 81.9999C74.5444 81.9999 72.7499 83.7935 72.7499 85.9999C72.7499 88.2054 74.5444 89.9998 76.7499 89.9998C78.9563 89.9998 80.7498 88.2054 80.7498 85.9999C80.7498 83.7935 78.9563 81.9999 76.7499 81.9999Z" fill="#141414"/>
<path d="M104.75 71.9999H94.75C93.6459 71.9999 92.7505 71.1046 92.7505 70.0004C92.7505 68.8963 93.6459 68 94.75 68H104.75C105.854 68 106.75 68.8963 106.75 70.0004C106.75 71.1046 105.854 71.9999 104.75 71.9999Z" fill="#141414"/>
<path d="M82.7504 71.9999H48.7504C47.6463 71.9999 46.75 71.1046 46.75 70.0004C46.75 68.8963 47.6463 68 48.7504 68H82.7504C83.8545 68 84.7499 68.8963 84.7499 70.0004C84.7499 71.1046 83.8545 71.9999 82.7504 71.9999Z" fill="#141414"/>
<path d="M88.7494 78.0002C84.3375 78.0002 80.7495 74.4123 80.7495 70.0004C80.7495 65.5884 84.3375 62.0005 88.7494 62.0005C93.1622 62.0005 96.7502 65.5884 96.7502 70.0004C96.7502 74.4123 93.1622 78.0002 88.7494 78.0002ZM88.7494 66.0004C86.5439 66.0004 84.7495 67.7939 84.7495 70.0004C84.7495 72.2059 86.5439 74.0003 88.7494 74.0003C90.9558 74.0003 92.7502 72.2059 92.7502 70.0004C92.7502 67.7939 90.9558 66.0004 88.7494 66.0004Z" fill="#141414"/>
<path d="M104.75 56.0001H48.7504C47.6463 56.0001 46.75 55.1038 46.75 53.9997V36.0004C46.75 34.8963 47.6463 34 48.7504 34H104.75C105.855 34 106.75 34.8963 106.75 36.0004V53.9997C106.75 55.1038 105.855 56.0001 104.75 56.0001ZM50.7499 52.0002H102.75V37.9999H50.7499V52.0002Z" fill="#141414"/>
<path d="M34.7499 120H8.75446C4.33978 120 0.75 116.41 0.75 111.995V25.9999C0.75 24.8958 1.6463 23.9995 2.75043 23.9995H34.7499C35.8541 23.9995 36.7504 24.8958 36.7504 25.9999V117.999C36.7504 119.104 35.8541 120 34.7499 120ZM4.74994 27.9995V111.995C4.74994 114.204 6.5462 116 8.75446 116H32.7504V27.9995H4.74994Z" fill="#141414"/>
<path d="M112.262 120H8.75446C4.33978 120 0.75 116.41 0.75 111.996V8.00446C0.75 3.58978 4.33978 0 8.75446 0H112.746C117.16 0 120.75 3.58978 120.75 8.00446V111.512C120.75 116.192 116.942 120 112.262 120ZM8.75446 3.99994C6.5462 3.99994 4.74994 5.7962 4.74994 8.00446V111.996C4.74994 114.204 6.5462 116 8.75446 116H112.262C114.736 116 116.75 113.986 116.75 111.512V8.00446C116.75 5.7962 114.954 3.99994 112.746 3.99994H8.75446Z" fill="#141414"/>
<path d="M18.7503 19.9998H10.7504C9.6463 19.9998 8.75 19.1044 8.75 18.0003V10.0004C8.75 8.8963 9.6463 8 10.7504 8H18.7503C19.8544 8 20.7498 8.8963 20.7498 10.0004V18.0003C20.7498 19.1044 19.8544 19.9998 18.7503 19.9998ZM12.7499 15.9999H16.7499V11.9999H12.7499V15.9999Z" fill="#141414"/>
<path d="M34.7498 19.9998H26.7499C25.6458 19.9998 24.7495 19.1044 24.7495 18.0003V10.0004C24.7495 8.8963 25.6458 8 26.7499 8H34.7498C35.8539 8 36.7502 8.8963 36.7502 10.0004V18.0003C36.7502 19.1044 35.8539 19.9998 34.7498 19.9998ZM28.7495 15.9999H32.7503V11.9999H28.7495V15.9999Z" fill="#141414"/>
<path d="M50.7499 19.9998H42.75C41.6459 19.9998 40.7505 19.1044 40.7505 18.0003V10.0004C40.7505 8.8963 41.6459 8 42.75 8H50.7499C51.854 8 52.7503 8.8963 52.7503 10.0004V18.0003C52.7503 19.1044 51.854 19.9998 50.7499 19.9998ZM44.7504 15.9999H48.7504V11.9999H44.7504V15.9999Z" fill="#141414"/>
<path d="M118.75 27.9996H2.75043C1.6463 27.9996 0.75 27.1042 0.75 26.0001V8.00446C0.75 3.58978 4.33978 0 8.75446 0H112.746C117.16 0 120.75 3.58978 120.75 8.00446V26.0001C120.75 27.1042 119.854 27.9996 118.75 27.9996ZM4.74994 23.9996H116.75V8.00446C116.75 5.7962 114.954 3.99994 112.746 3.99994H8.75446C6.5462 3.99994 4.74994 5.7962 4.74994 8.00446V23.9996Z" fill="#141414"/>
</g>
<defs>
<clipPath id="clip0_532_818">
<rect width="120" height="120" fill="white" transform="translate(0.75)"/>
</clipPath>
</defs>
</svg>
