<svg width="25" height="24" viewBox="0 0 25 24" fill="none" xmlns="http://www.w3.org/2000/svg">
<g clip-path="url(#clip0_755_1237)">
<path d="M17.5862 1.23764C17.7877 1.43566 17.9973 1.8112 18.1031 2.07477C18.209 2.33834 18.2629 2.8286 18.4753 2.98018C18.8126 3.22121 19.2032 3.00271 19.5719 3.0034C20.7929 3.00476 21.5283 3.82346 21.4907 5.0293C21.4798 5.37071 21.2695 5.71963 21.516 6.02143C21.6949 6.24062 22.0288 6.24471 22.2685 6.34235C23.4989 6.84422 24.0398 7.51748 23.5065 8.88447C23.3576 9.26548 23.0346 9.53519 23.135 9.97356C23.1917 10.2207 23.6355 10.442 23.8165 10.6209C24.7199 11.514 24.7362 12.4993 23.8151 13.3842C23.6335 13.559 23.1903 13.7925 23.135 14.0322C23.0401 14.4439 23.346 14.7259 23.4908 15.0858C23.9148 16.138 23.7093 16.9901 22.6631 17.4968C22.3327 17.6566 21.7147 17.7235 21.5173 17.9864C21.2804 18.3011 21.4832 18.6187 21.4907 18.9771C21.5112 19.8839 21.038 20.803 20.069 20.9341C19.6245 20.9942 19.2039 20.8842 18.8065 20.8938C18.2356 20.9074 18.2479 21.5691 18.0881 21.9685C17.6511 23.0604 16.8092 23.4257 15.6996 23.0296C15.296 22.8856 14.9614 22.5442 14.5217 22.6445C14.2847 22.6985 14.1823 23.0051 14.0266 23.1717C13.113 24.1481 12.1092 24.3379 11.1095 23.326C10.8651 23.0788 10.7312 22.6671 10.3372 22.6165C10.0375 22.5783 9.66735 22.9033 9.37373 23.016C8.32762 23.4188 7.44949 23.1239 6.96263 22.1065C6.76187 21.6872 6.76256 20.915 6.17873 20.8924C5.80658 20.8781 5.39551 20.9921 4.96601 20.9334C3.98135 20.8002 3.47947 19.9768 3.49244 19.029C3.49722 18.6624 3.71709 18.3189 3.46718 17.985C3.27052 17.7221 2.82531 17.729 2.5112 17.6115C1.36335 17.182 1.04037 16.2411 1.47738 15.1199C1.62624 14.7382 1.94922 14.4699 1.84885 14.0308C1.80515 13.8383 1.05197 13.32 0.846439 13.0401C0.237346 12.2098 0.474292 11.1685 1.22268 10.5205C1.39134 10.3744 1.8188 10.1873 1.85841 9.98107C1.94103 9.55636 1.69316 9.36858 1.5443 9.01967C1.04241 7.84454 1.26024 6.86949 2.5112 6.39083C2.8055 6.27817 3.30193 6.25837 3.46786 6.0187C3.7089 5.67115 3.49176 5.29014 3.49107 4.9221C3.48834 3.72308 4.28658 3.00408 5.46311 3.00545C5.80112 3.00545 6.19512 3.21712 6.50991 2.97882C6.72159 2.81904 6.80011 2.26391 6.91073 1.99966C7.39691 0.840244 8.43346 0.519321 9.56151 1.05396C9.89952 1.21443 10.0183 1.46024 10.4615 1.35918C10.6834 1.30865 10.8958 0.901697 11.0583 0.730311C11.9214 -0.181245 12.9955 -0.276156 13.8975 0.653836C14.0826 0.844341 14.2786 1.30456 14.5203 1.35986C14.9669 1.4616 15.3936 1.03826 15.8361 0.908525C16.4712 0.7228 17.096 0.754892 17.5842 1.23559L17.5862 1.23764ZM12.3256 1.12907C12.0313 1.18916 11.7609 1.67191 11.5424 1.8788C10.8773 2.50767 10.245 2.59849 9.39149 2.25094C8.97359 2.08092 8.43824 1.55378 8.06337 2.13144C7.57582 2.88322 7.77794 3.84394 6.57614 4.1198C5.99709 4.25295 5.50613 4.05698 5.00698 4.1355C4.38218 4.23383 4.7038 5.23278 4.66488 5.68481C4.58498 6.61685 4.06739 7.06341 3.23842 7.37613C2.92432 7.49426 2.50506 7.44851 2.3958 7.8623C2.2804 8.2993 2.60407 8.55467 2.75361 8.93841C3.15648 9.97083 2.91681 10.5389 2.16773 11.2641C1.96493 11.46 1.54362 11.6314 1.55523 11.9735C1.57025 12.3934 1.95196 12.5321 2.19368 12.7697C2.93798 13.501 3.15853 14.0923 2.7379 15.1056C2.57607 15.4955 2.13427 15.9243 2.50301 16.3442C2.66552 16.5292 3.43372 16.6617 3.74782 16.8372C4.3139 17.1527 4.60957 17.6812 4.66419 18.323C4.71063 18.8692 4.32824 19.7842 5.10394 19.8764C5.68367 19.9454 6.14186 19.703 6.8165 19.9529C7.70966 20.2834 7.64888 21.1498 8.034 21.8026C8.44576 22.5011 9.02685 21.8729 9.52737 21.6906C10.2437 21.4291 10.8726 21.5213 11.4421 22.0238C11.7616 22.3059 12.0552 22.8992 12.5175 22.8958C12.93 22.8924 13.0611 22.5025 13.3076 22.2512C13.9078 21.6401 14.3318 21.3636 15.2113 21.6285C15.6347 21.7562 16.2738 22.2301 16.6856 22.1017C17.0284 21.9952 17.0482 21.4257 17.154 21.1396C17.4442 20.3571 17.9604 19.9037 18.8099 19.8313C19.195 19.7986 20.041 20.0143 20.2841 19.7214C20.4828 19.4811 20.3203 19.0905 20.3121 18.8276C20.2862 18.0574 20.4084 17.3473 21.1131 16.9205C21.4907 16.6918 22.1066 16.6153 22.3927 16.4111C22.926 16.0308 22.3873 15.4757 22.2295 15.0701C21.8847 14.1852 21.9871 13.4689 22.6898 12.8236C22.9383 12.5956 23.4232 12.4146 23.4225 12.0302C23.4225 11.6096 22.9636 11.4027 22.713 11.1617C22.0247 10.4993 21.8779 9.83904 22.2289 8.93841C22.3907 8.52326 22.9718 7.89098 22.3408 7.54684C21.6095 7.14876 20.7758 7.27303 20.4275 6.23993C20.1961 5.55234 20.4344 5.15904 20.3845 4.58479C20.3217 3.85964 19.4285 4.19695 18.9587 4.18466C17.9639 4.15872 17.4517 3.62476 17.1185 2.75076C17.0188 2.48856 17.0195 2.01127 16.6849 1.9068C16.2772 1.78048 15.9536 2.0775 15.6067 2.21406C14.7736 2.54318 14.2506 2.61214 13.5397 1.98396C13.1416 1.63231 12.945 1.00139 12.3229 1.12839L12.3256 1.12907Z" fill="#141414"/>
<path d="M11.7153 4.40261C17.7717 3.89048 22.1065 10.129 19.248 15.5644C16.393 20.993 8.54479 20.9664 5.71841 15.531C3.25941 10.8016 6.39718 4.85193 11.7153 4.40261ZM11.97 5.47605C7.28081 5.83522 4.49608 10.9682 6.73998 15.1226C9.18805 19.6547 15.7545 19.6772 18.2251 15.1561C20.7251 10.581 17.1373 5.08068 11.97 5.47673V5.47605Z" fill="#141414"/>
<path d="M8.82871 11.6104C9.02742 11.4117 9.34835 11.3967 9.56481 11.5811L11.4365 13.3789L15.4584 9.37286C15.9378 9.07174 16.4827 9.56815 16.2484 10.0611L11.7772 14.5855C11.5403 14.804 11.2255 14.7357 10.9844 14.5588C10.5734 14.257 9.21725 12.8812 8.88812 12.464C8.67644 12.1956 8.54465 11.8959 8.8294 11.6118L8.82871 11.6104Z" fill="#141414"/>
</g>
<defs>
<clipPath id="clip0_755_1237">
<rect width="24" height="24" fill="white" transform="translate(0.5)"/>
</clipPath>
</defs>
</svg>
