<svg width="131" height="130" viewBox="0 0 131 130" fill="none" xmlns="http://www.w3.org/2000/svg">
<mask id="mask0_532_848" style="mask-type:luminance" maskUnits="userSpaceOnUse" x="0" y="0" width="131" height="130">
<path d="M0.75 0H130.75V130H0.75V0Z" fill="white"/>
</mask>
<g mask="url(#mask0_532_848)">
<path d="M71.8557 65.0005C71.8557 68.3726 69.1219 71.1064 65.7497 71.1064C62.3774 71.1064 59.6436 68.3726 59.6436 65.0005C59.6436 61.6281 62.3774 58.8943 65.7497 58.8943C69.1219 58.8943 71.8557 61.6281 71.8557 65.0005Z" stroke="black" stroke-width="4" stroke-miterlimit="10" stroke-linecap="round" stroke-linejoin="round"/>
<path d="M18.937 64.9995H25.0429" stroke="black" stroke-width="4" stroke-miterlimit="10" stroke-linecap="round" stroke-linejoin="round"/>
<path d="M106.457 64.9995H112.563" stroke="black" stroke-width="4" stroke-miterlimit="10" stroke-linecap="round" stroke-linejoin="round"/>
<path d="M65.75 18.187V24.293" stroke="black" stroke-width="4" stroke-miterlimit="10" stroke-linecap="round" stroke-linejoin="round"/>
<path d="M65.75 105.707V111.812" stroke="black" stroke-width="4" stroke-miterlimit="10" stroke-linecap="round" stroke-linejoin="round"/>
<path d="M42.3438 105.542L45.3967 100.253" stroke="black" stroke-width="4" stroke-miterlimit="10" stroke-linecap="round" stroke-linejoin="round"/>
<path d="M86.1035 29.7466L89.1565 24.4585" stroke="black" stroke-width="4" stroke-miterlimit="10" stroke-linecap="round" stroke-linejoin="round"/>
<path d="M25.2085 41.5935L30.4963 44.6465" stroke="black" stroke-width="4" stroke-miterlimit="10" stroke-linecap="round" stroke-linejoin="round"/>
<path d="M101.003 85.3538L106.292 88.4067" stroke="black" stroke-width="4" stroke-miterlimit="10" stroke-linecap="round" stroke-linejoin="round"/>
<path d="M89.1565 105.542L86.1035 100.253" stroke="black" stroke-width="4" stroke-miterlimit="10" stroke-linecap="round" stroke-linejoin="round"/>
<path d="M45.3967 29.7466L42.3438 24.4585" stroke="black" stroke-width="4" stroke-miterlimit="10" stroke-linecap="round" stroke-linejoin="round"/>
<path d="M106.291 41.5935L101.003 44.6465" stroke="black" stroke-width="4" stroke-miterlimit="10" stroke-linecap="round" stroke-linejoin="round"/>
<path d="M30.4968 85.3538L25.209 88.4067" stroke="black" stroke-width="4" stroke-miterlimit="10" stroke-linecap="round" stroke-linejoin="round"/>
<path d="M65.75 71.106V95.5303" stroke="black" stroke-width="4" stroke-miterlimit="10" stroke-linecap="round" stroke-linejoin="round"/>
<path d="M88.1386 42.6109L70.6401 60.1094" stroke="black" stroke-width="4" stroke-miterlimit="10" stroke-linecap="round" stroke-linejoin="round"/>
<path d="M101.56 106.566C92.8655 114.062 81.8678 118.929 69.869 119.803C36.1078 122.263 8.22381 94.1996 10.9848 60.3814C11.9506 48.5509 16.7807 37.7372 24.1691 29.1748" stroke="black" stroke-width="4" stroke-miterlimit="10" stroke-linecap="round" stroke-linejoin="round"/>
<path d="M29.9037 23.3968C38.2338 16.1981 48.7222 11.4412 60.2211 10.3166C76.6836 8.70685 91.8307 14.3776 102.853 24.4785L99.3069 27.2247C98.0338 28.2107 98.3555 30.2145 99.8734 30.7523L114.779 36.0338C116.175 36.5286 117.616 35.4132 117.486 33.9373L116.103 18.1842C115.962 16.58 114.102 15.767 112.829 16.7531L109.341 19.4544C97.3709 7.98321 80.9211 1.15669 62.849 1.9697C30.998 3.40249 4.84211 28.998 2.78953 60.815C0.339333 98.7946 31.515 130.147 69.4361 127.991C100.476 126.226 125.948 101.492 128.608 70.516C129.224 63.3482 128.624 56.411 127.011 49.8722C126.721 48.6973 125.445 48.0542 124.313 48.4828C123.061 48.9566 121.507 49.5624 120.382 50.0598C119.48 50.4584 119.017 51.4365 119.243 52.3965C120.684 58.51 121.106 65.0156 120.299 71.7332C118.972 82.7733 114.279 92.8006 107.336 100.829" stroke="black" stroke-width="4" stroke-miterlimit="10" stroke-linecap="round" stroke-linejoin="round"/>
</g>
</svg>
