<svg width="48" height="48" viewBox="0 0 48 48" fill="none" xmlns="http://www.w3.org/2000/svg">
<path d="M16.3934 12.5089C16.8343 12.5208 17.3232 12.5447 17.7883 13.5812C18.0967 14.2712 18.6163 15.5415 19.0396 16.5763C19.3689 17.3815 19.6399 18.0441 19.7077 18.1797C19.8627 18.4894 19.9581 18.8468 19.7554 19.2637C19.7315 19.3129 19.709 19.3599 19.6872 19.4052C19.5247 19.7439 19.409 19.985 19.1356 20.3002C19.0231 20.4297 18.906 20.5718 18.7894 20.7134C18.5841 20.9623 18.3803 21.2096 18.2055 21.3844C17.8956 21.6939 17.5736 22.0277 17.9312 22.6471C18.289 23.2665 19.5409 25.3037 21.3889 26.9478C23.3756 28.7235 25.1033 29.4718 25.9765 29.8501C26.1461 29.9235 26.2834 29.983 26.3842 30.0334C27.0043 30.3431 27.3738 30.2954 27.7315 29.8785C28.0893 29.4614 29.2814 28.0676 29.6988 27.4482C30.1042 26.8287 30.5214 26.9241 31.0938 27.1384C31.666 27.3528 34.7181 28.8539 35.338 29.1636C35.4606 29.2248 35.5752 29.28 35.6814 29.3312C36.1128 29.5388 36.406 29.68 36.5303 29.8904C36.6853 30.1524 36.6853 31.3915 36.1727 32.8449C35.6482 34.2983 33.1205 35.6921 31.9759 35.7993C31.8676 35.8096 31.7597 35.8227 31.6487 35.8362C30.5998 35.9635 29.2683 36.1252 24.5244 34.2506C18.6789 31.9429 14.8202 26.2172 14.0401 25.0596C13.9785 24.9682 13.9361 24.9053 13.9134 24.8748L13.9002 24.857C13.5453 24.3803 11.3738 21.4634 11.3738 18.4538C11.3738 15.5745 12.7867 14.0754 13.4312 13.3916C13.472 13.3483 13.5098 13.3082 13.5439 13.2713C14.1161 12.6519 14.7839 12.4971 15.2011 12.4971C15.6185 12.4971 16.0357 12.4971 16.3934 12.5089Z" fill="#141414"/>
<path fill-rule="evenodd" clip-rule="evenodd" d="M0.241191 46.7741C0.0440017 47.4927 0.695916 48.1559 1.41425 47.9676L12.5186 45.0558C16.0237 46.9619 19.9701 47.9745 23.9881 47.9745H24C37.222 47.9745 48 37.2169 48 23.9933C48 17.584 45.508 11.5558 40.9775 7.02869C36.4471 2.50177 30.4261 0 23.9998 0C10.778 0 1.52877e-06 10.7576 1.52877e-06 23.9814C-0.00150099 28.1882 1.10455 32.3214 3.20713 35.966L0.241191 46.7741ZM6.69248 36.9299C6.94993 35.9918 6.82132 34.9891 6.33552 34.147C4.55166 31.0549 3.61393 27.5482 3.6152 23.9814C3.6152 12.7793 12.7575 3.62938 23.9998 3.62938C29.4706 3.62938 34.5745 5.75133 38.4272 9.60106C42.2755 13.4465 44.3848 18.5488 44.3848 23.9933C44.3848 35.1952 35.2426 44.3451 24 44.3451H23.9881C20.5741 44.3451 17.2193 43.4844 14.2404 41.8645C13.4342 41.4261 12.4921 41.3116 11.6049 41.5442L4.94716 43.29L6.69248 36.9299Z" fill="#141414"/>
</svg>
