<svg width="34" height="34" viewBox="0 0 34 34" fill="none" xmlns="http://www.w3.org/2000/svg">
<path d="M31.9317 9.09508C31.7634 8.42275 31.4207 7.80672 30.9381 7.30924C30.4556 6.81176 29.8503 6.45043 29.1834 6.26175C26.7467 5.66675 17 5.66675 17 5.66675C17 5.66675 7.25337 5.66675 4.8167 6.31841C4.1498 6.50709 3.5445 6.86842 3.06194 7.36591C2.57938 7.86339 2.23665 8.47941 2.06837 9.15175C1.62242 11.6246 1.40429 14.1332 1.4167 16.6459C1.40081 19.1776 1.61896 21.7053 2.06837 24.1967C2.2539 24.8482 2.6043 25.4408 3.08574 25.9173C3.56718 26.3937 4.16337 26.738 4.8167 26.9167C7.25337 27.5684 17 27.5684 17 27.5684C17 27.5684 26.7467 27.5684 29.1834 26.9167C29.8503 26.7281 30.4556 26.3667 30.9381 25.8693C31.4207 25.3718 31.7634 24.7558 31.9317 24.0834C32.3742 21.6292 32.5923 19.1397 32.5834 16.6459C32.5993 14.1143 32.3811 11.5866 31.9317 9.09508Z" stroke="#141414" stroke-width="2" stroke-linecap="round" stroke-linejoin="round"/>
<path d="M13.8125 21.2784L21.9583 16.6459L13.8125 12.0134V21.2784Z" stroke="#141414" stroke-width="2" stroke-linecap="round" stroke-linejoin="round"/>
</svg>
