<svg width="25" height="24" viewBox="0 0 25 24" fill="none" xmlns="http://www.w3.org/2000/svg">
<g clip-path="url(#clip0_755_1243)">
<path d="M1.50931 8.16257H12.6588C12.8019 8.16257 12.9554 8.5097 12.9498 8.65718C12.9442 8.80466 12.7363 9.1017 12.6065 9.1017H1.50931V19.9803C1.50931 20.148 1.97884 20.6106 2.21256 20.5299L21.0428 20.5034C21.2528 20.4742 21.5633 20.052 21.5633 19.876V14.4763C21.4809 14.4561 21.4405 14.4979 21.3777 14.5257C20.92 14.7295 19.5288 15.7695 19.1856 15.7841C19.1081 15.7876 19.0349 15.7744 18.9658 15.7403C16.2372 14.1633 14.0612 13.1887 13.884 9.65196C13.817 8.30866 13.773 6.2704 13.884 4.95214C13.914 4.59248 13.9516 4.50761 14.2677 4.34414C15.7133 3.59631 17.5607 3.16501 19.0426 2.43457L19.3977 2.47353C20.8405 3.15596 22.5281 3.59492 23.9472 4.29266C24.2542 4.44361 24.3826 4.47909 24.4286 4.85544C24.2619 7.90866 25.2274 11.5859 22.5121 13.7807L22.5016 19.9267C22.3593 20.8833 21.7119 21.446 20.7547 21.5205H2.31652C1.4814 21.4627 0.843725 21.0252 0.592562 20.2175C0.461399 15.7069 0.480236 11.149 0.582795 6.63631C0.75512 5.89892 1.35582 5.3737 2.10861 5.29092H12.504C13.0049 5.35005 13.1123 5.95874 12.6721 6.19248L2.26698 6.23214C1.98721 6.23561 1.51 6.53683 1.51 6.83248V8.16257H1.50931ZM19.143 3.43005L14.904 5.13579L14.8761 10.0694C14.9967 11.4961 15.7244 12.5953 16.8881 13.3814C17.6172 13.8732 18.4223 14.278 19.1793 14.7267C20.6598 13.7765 22.3286 13.2074 23.087 11.485C23.8488 9.75492 23.2474 7.14761 23.4463 5.26448L23.4184 5.13579L19.143 3.43005Z" fill="#141414"/>
<path d="M3.68759 17.7217L7.85341 17.7119C8.34317 17.913 8.26922 18.5669 7.74666 18.6462C6.59899 18.8215 5.02992 18.5251 3.83689 18.6462C3.32899 18.539 3.24247 17.9874 3.68759 17.721V17.7217Z" fill="#141414"/>
<path d="M20.9213 6.97375C21.3692 6.8541 21.7327 7.3341 21.4494 7.71045L18.7571 10.3943C18.5959 10.4694 18.4229 10.4972 18.275 10.3776C17.9771 9.96019 17.0255 9.31462 16.8225 8.90767C16.6592 8.58001 16.962 8.18071 17.292 8.22454C17.622 8.26836 18.4159 9.30975 18.5073 9.30975L20.9206 6.97375H20.9213Z" fill="#141414"/>
</g>
<defs>
<clipPath id="clip0_755_1243">
<rect width="24" height="24" fill="white" transform="translate(0.5)"/>
</clipPath>
</defs>
</svg>
