<svg width="24" height="24" viewBox="0 0 24 24" fill="none" xmlns="http://www.w3.org/2000/svg">
<g clip-path="url(#clip0_755_1251)">
<path d="M5.99185 21.7939C6.01597 22.3696 6.63339 23.1813 6.14083 23.6614C5.72197 24.0691 5.24932 23.7769 5.07058 23.2965C4.80411 22.5808 4.35176 21.1058 4.22007 20.3712C4.15633 20.0166 4.17217 19.7694 4.50738 19.5667L7.50372 18.3773C8.09934 18.3128 8.40791 18.9046 8.09493 19.3983C7.89522 19.7132 6.42247 20.0688 6.05554 20.3296C10.4948 23.4639 16.6236 22.6159 19.9986 18.3918C21.7925 16.146 22.4314 13.5338 22.136 10.7057C22.0854 10.223 21.7388 9.38285 22.5071 9.24831C23.3494 9.10063 23.3956 10.4043 23.4493 10.9872C23.7926 14.7335 22.2675 18.4367 19.3767 20.8368C15.6087 23.9649 10.1977 24.3813 5.99204 21.7932L5.99185 21.7939Z" fill="#141414"/>
<path d="M17.8883 3.70612C17.4384 3.46023 17.0196 3.16418 16.558 2.93709C9.596 -0.488961 1.50788 4.75889 1.82274 12.5002C1.84888 13.1393 2.00265 13.7562 2.02555 14.3937C1.78896 15.0014 1.01903 15.0354 0.787904 14.3927C0.244894 12.8759 0.627377 9.91172 1.1218 8.40466C3.40653 1.44122 12.0103 -1.62342 18.1808 2.41331C18.2113 1.82805 17.4787 0.582942 18.2646 0.274048C18.7151 0.097707 19.0068 0.340774 19.1435 0.756577C19.3372 1.34473 19.4994 2.22773 19.6302 2.85387C19.6813 3.09992 19.8997 3.96725 19.8513 4.14725C19.7909 4.37225 19.5413 4.51823 19.345 4.61048C18.8454 4.84388 17.0713 5.4456 16.5457 5.54123C15.7397 5.68764 15.4057 4.69954 16.1881 4.32467C16.3134 4.26461 17.9356 3.7838 17.8883 3.70612Z" fill="#141414"/>
<path d="M8.09567 11.5243C8.32404 11.2974 8.69288 11.2803 8.94166 11.4907L11.0927 13.5432L15.715 8.96982C16.2659 8.62606 16.8922 9.19276 16.623 9.75556L11.4843 14.9206C11.212 15.17 10.8502 15.092 10.5732 14.8902C10.1008 14.5456 8.54221 12.9749 8.16395 12.4986C7.92067 12.1923 7.76921 11.8501 8.09646 11.5258L8.09567 11.5243Z" fill="#141414"/>
</g>
<defs>
<clipPath id="clip0_755_1251">
<rect width="24" height="24" fill="white"/>
</clipPath>
</defs>
</svg>
