<svg width="141" height="141" viewBox="0 0 141 141" fill="none" xmlns="http://www.w3.org/2000/svg">
<path d="M50.6912 42.8718C52.8459 42.8718 54.8776 43.4296 56.644 44.3976V15.2163C56.644 10.278 60.6744 6.24756 65.6127 6.24756H122.047C126.986 6.24756 131.016 10.278 131.016 15.2163V112.344C131.016 117.282 126.986 121.313 122.047 121.313H65.61C60.6717 121.313 56.6412 117.282 56.6412 112.344V76.6358H56.6112L45.4658 97.7343L52.0393 124.375C53.3573 129.716 48.7608 133.607 44.1807 133.079C41.8483 132.808 39.6553 131.427 38.5533 128.638L28.5783 103.26L18.967 101.439C16.2545 100.928 13.7963 100.362 11.7729 98.2374C9.74123 96.0991 8.77327 93.4933 8.92092 90.5401L10.1678 65.6272C10.2526 63.962 10.9033 62.6577 11.8795 61.7062C6.61584 57.7522 11.3381 48.0479 18.0893 50.8534L39.0947 59.5733C36.0951 51.537 42.0315 42.8718 50.6912 42.8718ZM60.4721 47.6788C62.0908 49.7706 63.0616 52.3983 63.0616 55.2448C63.0616 58.0968 62.0936 60.7245 60.4721 62.8163V63.3905L79.2928 66.1577C84.067 66.8632 85.4397 71.9874 83.5174 75.5585C82.4565 77.5272 80.4877 78.93 77.7588 78.6675L60.4748 77.0077V102.137H127.188V15.2163C127.188 12.3944 124.869 10.0784 122.05 10.0784H115.438L113.322 15.3421C112.313 17.8522 110.106 19.5585 107.408 19.5585H80.2553C77.5592 19.5585 75.3498 17.8522 74.3408 15.3421L72.2244 10.0784H65.6127C62.7908 10.0784 60.4748 12.3972 60.4748 15.2163V47.6788H60.4721ZM55.7061 66.5597C54.1721 67.2351 52.474 67.6151 50.6912 67.6151C47.5057 67.6151 44.6073 66.4147 42.4143 64.4378C42.283 64.3749 40.1502 64.1507 39.6717 63.9483L16.6291 54.3835C13.985 53.2815 12.1639 57.755 14.6303 58.9253L26.3963 64.5226L26.4674 64.5526L37.249 70.2019C38.1869 70.6038 38.6518 71.6757 38.2881 72.6437L30.9408 91.8581C30.033 94.2452 30.0412 96.5093 30.9791 98.8882L42.1162 127.249C43.5901 130.984 49.3104 129.201 48.3397 125.28L41.5967 97.9667C41.4791 97.5237 41.5283 97.037 41.7608 96.594L53.8358 73.721L53.844 73.7292C54.194 73.062 54.9131 72.6437 55.7115 72.7147L78.1198 74.8694C80.8487 75.1319 81.576 70.3577 78.7486 69.9394L55.7061 66.5597ZM56.7287 49.2046C53.3955 45.8714 47.9869 45.8714 44.6455 49.2046C41.3123 52.5378 41.3123 57.9464 44.6455 61.2878C48.1401 64.7823 53.8604 64.5827 57.117 60.8694C60.0838 57.4815 59.9061 52.3819 56.7287 49.2046ZM26.9951 99.0741C26.1885 96.337 26.2733 93.578 27.2194 90.8737H20.8565C19.801 90.8737 18.9424 90.0124 18.9424 88.9597V65.9636L18.8112 65.1433L16.0057 63.8171C15.4697 63.8718 14.9666 64.0659 14.603 64.3913C14.253 64.7003 14.0205 65.1651 13.9823 65.8105L12.7354 90.7288C12.5959 93.4413 14.0533 95.9761 16.6428 96.944C17.5178 97.2694 18.5651 97.48 19.6725 97.6878L26.9951 99.0741ZM28.6768 87.0456L34.1018 72.8624L24.7612 67.9706L22.7678 67.0245V87.0456H28.6768ZM67.71 86.7667C66.649 86.7667 65.7959 85.9136 65.7959 84.8526C65.7959 83.7999 66.649 82.9386 67.71 82.9386H76.7389C77.7998 82.9386 78.653 83.7999 78.653 84.8526C78.653 85.9136 77.7998 86.7667 76.7389 86.7667H67.71ZM87.1186 86.7667C86.0631 86.7667 85.2045 85.9136 85.2045 84.8526C85.2045 83.7999 86.0658 82.9386 87.1186 82.9386H119.983C121.036 82.9386 121.897 83.7999 121.897 84.8526C121.897 85.9136 121.036 86.7667 119.983 86.7667H87.1186ZM76.1127 97.7015C75.0518 97.7015 74.1987 96.8401 74.1987 95.7874C74.1987 94.7347 75.0518 93.8733 76.1127 93.8733H102.636C103.692 93.8733 104.55 94.7347 104.55 95.7874C104.55 96.8429 103.689 97.7015 102.636 97.7015H76.1127ZM112.335 97.7015C111.28 97.7015 110.421 96.8401 110.421 95.7874C110.421 94.7347 111.282 93.8733 112.335 93.8733H119.986C121.039 93.8733 121.9 94.7347 121.9 95.7874C121.9 96.8429 121.039 97.7015 119.986 97.7015H112.335ZM98.3268 46.5769L103.705 51.9554C104.457 52.6991 104.457 53.9159 103.705 54.6597C102.962 55.4116 101.753 55.4116 101.001 54.6597L95.6225 49.2812C92.4588 50.5444 88.9807 48.212 88.9807 44.7776C88.9807 42.8089 90.1674 41.0808 91.9174 40.3288V32.7163C91.9174 31.6608 92.7705 30.8022 93.8233 30.8022C94.8842 30.8022 95.7373 31.6636 95.7373 32.7163V40.3288C98.1408 41.3597 99.3029 44.1269 98.3268 46.5769ZM94.5451 44.0585C93.5991 43.1124 92.1662 44.5534 93.1123 45.4995C94.0584 46.4456 95.4912 45.0128 94.5451 44.0585ZM91.9174 63.7542V62.1272C91.9174 61.0745 92.7705 60.2132 93.8233 60.2132C94.8842 60.2132 95.7373 61.0745 95.7373 62.1272V63.7542C104.744 62.8546 111.897 55.7015 112.797 46.6944H111.178C110.117 46.6944 109.264 45.8413 109.264 44.7804C109.264 43.7276 110.117 42.8663 111.178 42.8663H112.797C111.897 33.8675 104.744 26.7062 95.7373 25.8065V27.4335C95.7373 28.4862 94.8842 29.3476 93.8233 29.3476C92.7705 29.3476 91.9174 28.4862 91.9174 27.4335V25.8065C82.9104 26.7062 75.7573 33.8675 74.8576 42.8663H76.4764C77.5373 42.8663 78.3904 43.7276 78.3904 44.7804C78.3904 45.8413 77.5373 46.6944 76.4764 46.6944H74.8576C75.7573 55.6987 82.9104 62.8546 91.9174 63.7542ZM93.8233 21.8827C106.472 21.8827 116.721 32.1366 116.721 44.7804C116.721 57.4214 106.475 67.678 93.8233 67.678C81.1823 67.678 70.9338 57.4241 70.9338 44.7804C70.9365 32.1366 81.1823 21.8827 93.8233 21.8827ZM127.185 105.965H60.4721V112.344C60.4721 115.166 62.7908 117.482 65.61 117.482H122.045C124.867 117.482 127.183 115.163 127.183 112.344V105.965H127.185ZM76.3369 10.0784L77.8791 13.9229C78.2975 14.9702 79.126 15.7276 80.2498 15.7276H107.402C108.526 15.7276 109.355 14.9675 109.773 13.9229L111.315 10.0784H76.3369Z" fill="#141414"/>
</svg>
