<svg width="131" height="130" viewBox="0 0 131 130" fill="none" xmlns="http://www.w3.org/2000/svg">
<g clip-path="url(#clip0_580_237)">
<path d="M114 97.5H16.5C12.1902 97.5 8.05698 99.2121 5.00951 102.26C1.96205 105.307 0.25 109.44 0.25 113.75C0.25 118.06 1.96205 122.193 5.00951 125.24C8.05698 128.288 12.1902 130 16.5 130H114C118.31 130 122.443 128.288 125.49 125.24C128.538 122.193 130.25 118.06 130.25 113.75C130.25 109.44 128.538 105.307 125.49 102.26C122.443 99.2121 118.31 97.5 114 97.5ZM114 125.938H16.5C13.2677 125.938 10.1677 124.653 7.88214 122.368C5.59654 120.082 4.3125 116.982 4.3125 113.75C4.3125 110.518 5.59654 107.418 7.88214 105.132C10.1677 102.847 13.2677 101.562 16.5 101.562H114C117.232 101.562 120.332 102.847 122.618 105.132C124.903 107.418 126.188 110.518 126.188 113.75C126.188 116.982 124.903 120.082 122.618 122.368C120.332 124.653 117.232 125.938 114 125.938Z" fill="black"/>
<path d="M61.1875 32.5C59.5713 32.5 58.0214 33.142 56.8786 34.2848C55.7358 35.4276 55.0938 36.9776 55.0938 38.5938V89.375C55.0938 89.9137 55.3078 90.4304 55.6887 90.8113C56.0696 91.1922 56.5863 91.4062 57.125 91.4062H73.375C73.9137 91.4062 74.4304 91.1922 74.8113 90.8113C75.1922 90.4304 75.4062 89.9137 75.4062 89.375V38.5938C75.4062 36.9776 74.7642 35.4276 73.6214 34.2848C72.4786 33.142 70.9287 32.5 69.3125 32.5H61.1875ZM71.3438 38.5938V87.3438H59.1562V38.5938C59.1562 38.055 59.3703 37.5384 59.7512 37.1574C60.1321 36.7765 60.6488 36.5625 61.1875 36.5625H69.3125C69.8512 36.5625 70.3679 36.7765 70.7488 37.1574C71.1297 37.5384 71.3438 38.055 71.3438 38.5938Z" fill="black"/>
<path d="M85.5625 16.25C83.9463 16.25 82.3964 16.892 81.2536 18.0348C80.1108 19.1776 79.4688 20.7276 79.4688 22.3438V89.375C79.4688 89.9137 79.6828 90.4304 80.0637 90.8113C80.4446 91.1922 80.9613 91.4062 81.5 91.4062H97.75C98.2887 91.4062 98.8054 91.1922 99.1863 90.8113C99.5672 90.4304 99.7812 89.9137 99.7812 89.375V22.3438C99.7812 20.7276 99.1392 19.1776 97.9964 18.0348C96.8536 16.892 95.3037 16.25 93.6875 16.25H85.5625ZM95.7188 22.3438V87.3438H83.5312V22.3438C83.5312 21.805 83.7453 21.2884 84.1262 20.9074C84.5071 20.5265 85.0238 20.3125 85.5625 20.3125H93.6875C94.2262 20.3125 94.7429 20.5265 95.1238 20.9074C95.5047 21.2884 95.7188 21.805 95.7188 22.3438Z" fill="black"/>
<path d="M103.844 6.09375V89.375C103.844 89.9137 104.058 90.4304 104.439 90.8113C104.82 91.1922 105.336 91.4062 105.875 91.4062H122.125C122.664 91.4062 123.18 91.1922 123.561 90.8113C123.942 90.4304 124.156 89.9137 124.156 89.375V6.09375C124.156 4.47759 123.514 2.92762 122.371 1.78482C121.229 0.642018 119.679 0 118.062 0L109.938 0C108.321 0 106.771 0.642018 105.629 1.78482C104.486 2.92762 103.844 4.47759 103.844 6.09375ZM107.906 6.09375C107.906 5.55503 108.12 5.03837 108.501 4.65744C108.882 4.27651 109.399 4.0625 109.938 4.0625H118.062C118.601 4.0625 119.118 4.27651 119.499 4.65744C119.88 5.03837 120.094 5.55503 120.094 6.09375V87.3438H107.906V6.09375Z" fill="black"/>
<path d="M44.9375 44.6875H36.8125C35.1963 44.6875 33.6464 45.3295 32.5036 46.4723C31.3608 47.6151 30.7188 49.1651 30.7188 50.7812V89.375C30.7188 89.9137 30.9328 90.4304 31.3137 90.8113C31.6946 91.1922 32.2113 91.4062 32.75 91.4062H49C49.5387 91.4062 50.0554 91.1922 50.4363 90.8113C50.8172 90.4304 51.0312 89.9137 51.0312 89.375V50.7812C51.0312 49.1651 50.3892 47.6151 49.2464 46.4723C48.1036 45.3295 46.5537 44.6875 44.9375 44.6875ZM46.9688 87.3438H34.7812V50.7812C34.7812 50.2425 34.9953 49.7259 35.3762 49.3449C35.7571 48.964 36.2738 48.75 36.8125 48.75H44.9375C45.4762 48.75 45.9929 48.964 46.3738 49.3449C46.7547 49.7259 46.9688 50.2425 46.9688 50.7812V87.3438Z" fill="black"/>
<path d="M8.375 91.4062H24.625C25.1637 91.4062 25.6804 91.1922 26.0613 90.8113C26.4422 90.4304 26.6562 89.9137 26.6562 89.375V62.9688C26.6562 61.3526 26.0142 59.8026 24.8714 58.6598C23.7286 57.517 22.1787 56.875 20.5625 56.875H12.4375C10.8213 56.875 9.27137 57.517 8.12857 58.6598C6.98577 59.8026 6.34375 61.3526 6.34375 62.9688V89.375C6.34375 89.9137 6.55776 90.4304 6.93869 90.8113C7.31962 91.1922 7.83628 91.4062 8.375 91.4062ZM10.4062 62.9688C10.4062 62.43 10.6203 61.9134 11.0012 61.5324C11.3821 61.1515 11.8988 60.9375 12.4375 60.9375H20.5625C21.1012 60.9375 21.6179 61.1515 21.9988 61.5324C22.3797 61.9134 22.5938 62.43 22.5938 62.9688V87.3438H10.4062V62.9688Z" fill="black"/>
<path d="M111.969 111.719H107.906V107.656C107.906 107.118 107.692 106.601 107.311 106.22C106.93 105.839 106.414 105.625 105.875 105.625C105.336 105.625 104.82 105.839 104.439 106.22C104.058 106.601 103.844 107.118 103.844 107.656V111.719H99.7812C99.2425 111.719 98.7259 111.933 98.3449 112.314C97.964 112.695 97.75 113.211 97.75 113.75C97.75 114.289 97.964 114.805 98.3449 115.186C98.7259 115.567 99.2425 115.781 99.7812 115.781H103.844V119.844C103.844 120.382 104.058 120.899 104.439 121.28C104.82 121.661 105.336 121.875 105.875 121.875C106.414 121.875 106.93 121.661 107.311 121.28C107.692 120.899 107.906 120.382 107.906 119.844V115.781H111.969C112.507 115.781 113.024 115.567 113.405 115.186C113.786 114.805 114 114.289 114 113.75C114 113.211 113.786 112.695 113.405 112.314C113.024 111.933 112.507 111.719 111.969 111.719Z" fill="black"/>
<path d="M30.7188 111.719H18.5312C17.9925 111.719 17.4759 111.933 17.0949 112.314C16.714 112.695 16.5 113.211 16.5 113.75C16.5 114.289 16.714 114.805 17.0949 115.186C17.4759 115.567 17.9925 115.781 18.5312 115.781H30.7188C31.2575 115.781 31.7741 115.567 32.1551 115.186C32.536 114.805 32.75 114.289 32.75 113.75C32.75 113.211 32.536 112.695 32.1551 112.314C31.7741 111.933 31.2575 111.719 30.7188 111.719Z" fill="black"/>
</g>
<defs>
<clipPath id="clip0_580_237">
<rect width="130" height="130" fill="white" transform="translate(0.25)"/>
</clipPath>
</defs>
</svg>
